<svg width="35" height="35" viewBox="0 0 35 35" fill="none" xmlns="http://www.w3.org/2000/svg">
<g clip-path="url(#clip0_5_20)">
<path d="M25.0688 17.1531H20.7271V14.3792C20.7271 13.7613 20.8793 13.2131 21.2145 12.8255C21.538 12.4515 22.0959 12.1535 23.0708 12.1535H25.2715H25.7715V11.6535V7.35728V6.93544L25.3556 6.86442L25.2715 7.35728C25.3556 6.86442 25.3556 6.86441 25.3555 6.8644L25.3554 6.86437L25.355 6.8643L25.3536 6.86406L25.3486 6.86323L25.3302 6.86016L25.2608 6.84889C25.2006 6.83926 25.1131 6.82561 25.0023 6.8093C24.781 6.77668 24.4663 6.73331 24.0913 6.68996C23.3434 6.60351 22.3457 6.51603 21.3646 6.51603C19.27 6.51603 17.4834 7.15264 16.2198 8.41759C14.9558 9.68304 14.2729 11.5195 14.2729 13.806V17.1517H10.341H9.84104V17.6517V22.6975V23.1975H10.341H14.2729V34.2985C6.43264 32.7856 0.5 25.8863 0.5 17.6064C0.5 8.21821 8.11177 0.606445 17.5 0.606445C26.8883 0.606445 34.5 8.21678 34.5 17.6064C34.5 25.8879 28.5686 32.7886 20.7271 34.3V23.1989H24.2944H24.7235L24.7886 22.7748L25.563 17.729L25.6513 17.1531H25.0688Z" fill="#4990B7" stroke="#4990B7"/>
</g>
<defs>
<clipPath id="clip0_5_20">
<rect width="35" height="35" fill="white"/>
</clipPath>
</defs>
</svg>
