<svg width="35" height="35" viewBox="0 0 35 35" fill="none" xmlns="http://www.w3.org/2000/svg">
<g clip-path="url(#clip0_5_10)">
<path fill-rule="evenodd" clip-rule="evenodd" d="M17.5 0.431671C7.83563 0.431671 0 8.26584 0 17.9317C0 25.6638 5.01375 32.2233 11.9671 34.5377C12.8421 34.6996 13.1629 34.1586 13.1629 33.6963C13.1629 33.2792 13.1469 31.901 13.1396 30.4383C8.27167 31.4971 7.24354 28.3733 7.24354 28.3733C6.44729 26.3506 5.30104 25.8125 5.30104 25.8125C3.71292 24.726 5.42063 24.7494 5.42063 24.7494C7.17792 24.8733 8.1025 26.5533 8.1025 26.5533C9.66292 29.2279 12.196 28.455 13.195 28.0073C13.3525 26.8756 13.806 26.1042 14.3063 25.6667C10.4198 25.2248 6.33354 23.7242 6.33354 17.0188C6.33354 15.1083 7.0175 13.5465 8.1375 12.3215C7.95521 11.8796 7.35583 10.1004 8.30667 7.6898C8.30667 7.6898 9.77667 7.22021 13.1206 9.48355C14.5162 9.09563 16.0125 8.90167 17.5 8.89438C18.9875 8.90167 20.4852 9.09563 21.8838 9.48355C25.2233 7.21875 26.6919 7.6898 26.6919 7.6898C27.6442 10.1004 27.0448 11.8796 26.864 12.3215C27.9854 13.5465 28.665 15.1083 28.665 17.0188C28.665 23.7402 24.5715 25.2204 20.6748 25.6535C21.3019 26.196 21.8619 27.2621 21.8619 28.894C21.8619 31.236 21.8415 33.1202 21.8415 33.6963C21.8415 34.1615 22.1565 34.7083 23.0431 34.5363C29.9935 32.219 35.0015 25.6623 35.0015 17.9331C35 8.2673 27.1644 0.431671 17.5 0.431671Z" fill="#4990B7"/>
<path d="M6.62811 25.5587C6.5902 25.6462 6.45311 25.6725 6.3277 25.6127C6.20082 25.5558 6.12936 25.4362 6.1702 25.3502C6.20811 25.2612 6.3452 25.2365 6.47207 25.2962C6.59895 25.3517 6.67186 25.4712 6.62811 25.5587Z" fill="#4990B7"/>
<path d="M7.33686 26.3492C7.25374 26.4265 7.0904 26.39 6.97957 26.269C6.86436 26.1465 6.84395 25.9831 6.92853 25.9058C7.01457 25.8286 7.17207 25.865 7.28728 25.9875C7.40249 26.1086 7.42436 26.2704 7.33686 26.3492Z" fill="#4990B7"/>
<path d="M8.02668 27.3569C7.91876 27.4312 7.74376 27.3612 7.63584 27.2067C7.52793 27.0506 7.52793 26.864 7.63876 26.7896C7.74668 26.7152 7.92022 26.7823 8.02959 26.9369C8.13605 27.0944 8.13605 27.281 8.02668 27.3569Z" fill="#4990B7"/>
<path d="M8.97166 28.331C8.87541 28.4375 8.67124 28.4083 8.52249 28.264C8.36937 28.1225 8.32708 27.9227 8.42333 27.8163C8.52103 27.7098 8.72666 27.7404 8.87687 27.8833C9.02853 28.0248 9.07374 28.226 8.97166 28.331Z" fill="#4990B7"/>
<path d="M10.2769 28.8954C10.2346 29.0325 10.0377 29.0952 9.83936 29.0369C9.64103 28.9771 9.51124 28.8167 9.55207 28.6781C9.5929 28.5396 9.79124 28.4754 9.99103 28.5381C10.1879 28.5965 10.3177 28.7569 10.2769 28.8954Z" fill="#4990B7"/>
<path d="M11.709 29.0004C11.7133 29.1448 11.5456 29.2644 11.3371 29.2673C11.1285 29.2717 10.9579 29.155 10.9565 29.0135C10.9565 28.8677 11.1212 28.7496 11.3298 28.7452C11.5383 28.7408 11.709 28.8575 11.709 29.0004Z" fill="#4990B7"/>
<path d="M13.0419 28.7744C13.0667 28.9144 12.9223 29.0602 12.7152 29.0981C12.5125 29.136 12.3244 29.0485 12.2981 28.9085C12.2733 28.7642 12.4206 28.6198 12.6233 28.5819C12.829 28.5454 13.0156 28.63 13.0419 28.7744Z" fill="#4990B7"/>
</g>
<defs>
<clipPath id="clip0_5_10">
<rect width="35" height="35" fill="white"/>
</clipPath>
</defs>
</svg>
