<svg width="35" height="34" viewBox="0 0 35 34" fill="none" xmlns="http://www.w3.org/2000/svg">
<path d="M17.5 3.06283C22.1725 3.06283 22.7267 3.07983 24.5715 3.162C26.479 3.247 28.4433 3.66917 29.8331 5.01925C31.236 6.38208 31.6575 8.27192 31.745 10.1306C31.8296 11.9227 31.8471 12.461 31.8471 17C31.8471 21.539 31.8296 22.0773 31.745 23.8694C31.659 25.7125 31.2142 27.6392 29.8331 28.9808C28.4302 30.3436 26.4863 30.753 24.5715 30.838C22.7267 30.9202 22.1725 30.9372 17.5 30.9372C12.8275 30.9372 12.2733 30.9202 10.4285 30.838C8.54583 30.7544 6.53625 30.3124 5.16688 28.9808C3.77125 27.625 3.3425 25.7168 3.255 23.8694C3.17042 22.0773 3.15292 21.539 3.15292 17C3.15292 12.461 3.17042 11.9227 3.255 10.1306C3.34104 8.29458 3.79021 6.35658 5.16688 5.01925C6.56688 3.65925 8.51958 3.247 10.4285 3.162C12.2733 3.07983 12.8275 3.06283 17.5 3.06283ZM17.5 0C12.7473 0 12.1508 0.0198333 10.2842 0.102C7.57896 0.222417 4.89271 0.953417 2.93708 2.85317C0.974167 4.76 0.228958 7.36383 0.105 9.99033C0.0204167 11.8037 0 12.3831 0 17C0 21.6169 0.0204167 22.1963 0.105 24.0097C0.228958 26.6347 0.984375 29.2513 2.93708 31.1468C4.89854 33.0522 7.58333 33.7776 10.2842 33.898C12.1508 33.9802 12.7473 34 17.5 34C22.2527 34 22.8492 33.9802 24.7158 33.898C27.4196 33.7776 30.1088 33.0452 32.0629 31.1468C34.0273 29.2386 34.771 26.6362 34.895 24.0097C34.9796 22.1963 35 21.6169 35 17C35 12.3831 34.9796 11.8037 34.895 9.99033C34.771 7.36242 34.0171 4.7515 32.0629 2.85317C30.1044 0.950583 27.4123 0.221 24.7158 0.102C22.8492 0.0198333 22.2527 0 17.5 0Z" fill="#4990B7"/>
<path d="M17.5 8.27051C12.5373 8.27051 8.51376 12.1791 8.51376 17C8.51376 21.8209 12.5373 25.7295 17.5 25.7295C22.4627 25.7295 26.4863 21.8209 26.4863 17C26.4863 12.1791 22.4627 8.27051 17.5 8.27051ZM17.5 22.6667C14.2786 22.6667 11.6667 20.1294 11.6667 17C11.6667 13.8706 14.2786 11.3333 17.5 11.3333C20.7215 11.3333 23.3333 13.8706 23.3333 17C23.3333 20.1294 20.7215 22.6667 17.5 22.6667Z" fill="#4990B7"/>
<path d="M26.8421 9.96483C28.0019 9.96483 28.9421 9.05149 28.9421 7.92483C28.9421 6.79817 28.0019 5.88483 26.8421 5.88483C25.6823 5.88483 24.7421 6.79817 24.7421 7.92483C24.7421 9.05149 25.6823 9.96483 26.8421 9.96483Z" fill="#4990B7"/>
</svg>
