<svg width="35" height="35" viewBox="0 0 35 35" fill="none" xmlns="http://www.w3.org/2000/svg">
<path d="M12.3958 11.7688C12.6292 11.7075 12.8698 11.6652 13.1221 11.6652L21.8619 11.6579H21.8648C22.1273 11.6579 22.3796 11.7046 22.626 11.7702L18.9525 15.4438C18.184 16.2123 16.8408 16.2123 16.0708 15.4438L12.3944 11.7673L12.3958 11.7688ZM21.0146 17.5073C20.0798 18.4435 18.8358 18.9583 17.5131 18.9583C16.1904 18.9583 14.945 18.4421 14.0102 17.5073L10.3235 13.8192C10.2565 14.0642 10.2098 14.3165 10.2098 14.5819V18.9554C10.2098 19.7356 10.5131 20.4677 11.0644 21.019C11.6156 21.5702 12.3477 21.8721 13.1265 21.8721L21.8663 21.8677C23.4748 21.8677 24.7815 20.5581 24.7815 18.951V14.576C24.7815 14.3252 24.7392 14.0817 24.6779 13.8454L21.0146 17.5087V17.5073ZM35 17.5C35 27.1498 27.1498 35 17.5 35C7.85021 35 0 27.1498 0 17.5C0 7.85021 7.85021 0 17.5 0C27.1498 0 35 7.85021 35 17.5ZM27.6981 14.5746C27.6981 13.0156 27.09 11.55 25.9875 10.4475C24.885 9.34792 23.4208 8.74125 21.8648 8.74125H21.859L13.1192 8.74854C9.90646 8.75146 7.29167 11.3677 7.29167 14.5819V18.9554C7.29167 20.5144 7.89833 21.98 9.00083 23.081C10.1033 24.1821 11.5675 24.7887 13.125 24.7887H13.1294L21.8692 24.7844C25.0833 24.7829 27.6981 22.1652 27.6981 18.951V14.576V14.5746Z" fill="#4990B7"/>
</svg>
