<svg width="35" height="35" viewBox="0 0 35 35" fill="none" xmlns="http://www.w3.org/2000/svg">
<path d="M0 17.5C0 27.1498 7.85021 35 17.5 35C27.1498 35 35 27.1498 35 17.5C35 7.85021 27.1498 0 17.5 0C7.85021 0 0 7.85021 0 17.5ZM7.29167 12.9646C7.29167 11.76 7.72625 10.5525 8.645 9.63521L10.9885 7.29167L15.6027 11.9058L12.5825 14.926C14.0831 18.6608 16.625 21.1006 20.074 22.4175L23.0942 19.3973L27.7083 24.0115L25.3648 26.355C24.4475 27.2738 23.24 27.7083 22.0354 27.7083C15.8521 27.7083 7.29167 19.6233 7.29167 12.9646Z" fill="#4990B7"/>
</svg>
